<svg id="Grupo_156605" data-name="Grupo 156605" xmlns="http://www.w3.org/2000/svg" width="15.814" height="20.486" viewBox="0 0 15.814 20.486">
  <g id="Grupo_156604" data-name="Grupo 156604">
    <path id="Trazado_598920" data-name="Trazado 598920" d="M15.853,2H3.953A1.982,1.982,0,0,0,2,4.009V5.774H17.807V4.009A1.982,1.982,0,0,0,15.853,2ZM4.54,5.048a.581.581,0,0,1-.006-1.161H4.54a.581.581,0,0,1,0,1.161Zm1.965,0A.581.581,0,0,1,6.5,3.887H6.5a.581.581,0,0,1,0,1.161Zm1.965,0a.581.581,0,0,1-.006-1.161h.006a.581.581,0,0,1,0,1.161Z" transform="translate(-1.992 -2)" fill="#fff"/>
    <path id="Sustracción_1" data-name="Sustracción 1" d="M13.355,15.3H2.445A2.448,2.448,0,0,1,0,12.854L.008,0H15.814L15.8,12.854A2.448,2.448,0,0,1,13.355,15.3ZM5.59,5.015a.523.523,0,0,0-.256.068L4.1,5.8a2.794,2.794,0,0,0,2.82,4.823l.008,0a.015.015,0,0,1,.008,0l.01-.008L8.127,9.92a.517.517,0,0,0-.258-.966.506.506,0,0,0-.262.071l-1.189.684L6.4,9.722a1.744,1.744,0,0,1-.875.235A1.776,1.776,0,0,1,4.008,9.1a1.763,1.763,0,0,1,.613-2.405L5.85,5.978a.506.506,0,0,0,.238-.311.512.512,0,0,0-.049-.394A.522.522,0,0,0,5.59,5.015Zm4.705-1.334a1.779,1.779,0,0,1,1.52.86A1.763,1.763,0,0,1,11.2,6.946L9.973,7.66a.511.511,0,0,0-.24.313.517.517,0,0,0,.5.652.553.553,0,0,0,.26-.07l1.186-.683.053-.031A2.8,2.8,0,0,0,12.7,4.013a2.8,2.8,0,0,0-3.818-.974L7.7,3.718a.523.523,0,0,0-.186.708.512.512,0,0,0,.447.259.519.519,0,0,0,.258-.068L9.4,3.929a.058.058,0,0,0,.018-.013A1.757,1.757,0,0,1,10.295,3.681ZM9.486,5.394a.519.519,0,0,0-.258.068L6.074,7.281a.517.517,0,0,0,.26.965.519.519,0,0,0,.26-.07l3.15-1.819a.511.511,0,0,0,.24-.312.515.515,0,0,0-.5-.65Z" transform="translate(0 5.188)" fill="#fff"/>
  </g>
</svg>
