<svg xmlns="http://www.w3.org/2000/svg" xmlns:xlink="http://www.w3.org/1999/xlink" width="56" height="49" viewBox="0 0 56 49">
  <defs>
    <clipPath id="clip-path">
      <rect id="Rect치ngulo_400941" data-name="Rect치ngulo 400941" width="41.609" height="40.379" fill="#12263f"/>
    </clipPath>
  </defs>
  <g id="Grupo_1101939" data-name="Grupo 1101939" transform="translate(-180.051 -882)">
    <g id="Grupo_1101938" data-name="Grupo 1101938">
      <rect id="Rect치ngulo_401768" data-name="Rect치ngulo 401768" width="56" height="49" transform="translate(180.051 882)" fill="#c99d52"/>
      <g id="Grupo_1099652" data-name="Grupo 1099652" transform="translate(188.787 886.311)">
        <g id="Grupo_1099367" data-name="Grupo 1099367" transform="translate(0 0)" clip-path="url(#clip-path)">
          <path id="Trazado_880971" data-name="Trazado 880971" d="M34.6,5.142h-2.08a3.47,3.47,0,0,0-3.329-2.6H27.315a3.441,3.441,0,0,0-6.658.068H18.785A3.41,3.41,0,0,0,15.456,5.21H13.376a3.238,3.238,0,0,0-3.26,3.222V37.157a3.238,3.238,0,0,0,3.26,3.222H34.6a3.238,3.238,0,0,0,3.26-3.222V8.364A3.238,3.238,0,0,0,34.6,5.142M18.785,4.319H21.42a.912.912,0,0,0,.9-.891,1.734,1.734,0,0,1,3.467,0,.912.912,0,0,0,.9.891h2.635a1.714,1.714,0,1,1,0,3.428h-10.4a1.707,1.707,0,0,1-1.734-1.714,1.6,1.6,0,0,1,1.6-1.714M36.122,37.088A1.531,1.531,0,0,1,34.6,38.6H13.376a1.531,1.531,0,0,1-1.526-1.508V8.364a1.531,1.531,0,0,1,1.526-1.509h2.081a3.549,3.549,0,0,0,3.328,2.605H29.534a3.555,3.555,0,0,0,3.051-2.537h2.081a1.531,1.531,0,0,1,1.525,1.508V37.088Z" transform="translate(-3.181 0)" fill="#12263f"/>
          <path id="Trazado_880972" data-name="Trazado 880972" d="M2.635,48.8a2.606,2.606,0,1,0,0,5.211A2.62,2.62,0,0,0,5.27,51.405,2.665,2.665,0,0,0,2.635,48.8m0,3.428a.891.891,0,1,1,.9-.891,1.023,1.023,0,0,1-.9.891" transform="translate(0 -15.346)" fill="#12263f"/>
          <path id="Trazado_880973" data-name="Trazado 880973" d="M4.679,12.5a2.125,2.125,0,1,0,2.15,2.125A2.149,2.149,0,0,0,4.679,12.5m0,2.605a.411.411,0,1,1,0-.823.446.446,0,0,1,.416.411c.069.206-.138.411-.416.411" transform="translate(-0.795 -3.931)" fill="#12263f"/>
          <path id="Trazado_880974" data-name="Trazado 880974" d="M54.845,2.5a3.061,3.061,0,0,0-3.051,3.017,3.052,3.052,0,0,0,6.1,0A3.061,3.061,0,0,0,54.845,2.5m0,4.319a1.309,1.309,0,0,1-1.318-1.3,1.318,1.318,0,0,1,2.635,0,1.268,1.268,0,0,1-1.318,1.3" transform="translate(-16.287 -0.786)" fill="#12263f"/>
          <path id="Trazado_880975" data-name="Trazado 880975" d="M17.809,29.5h8.6a2.619,2.619,0,0,0,2.636-2.605V20.105A2.619,2.619,0,0,0,26.408,17.5h-8.6a2.619,2.619,0,0,0-2.635,2.605v6.787A2.619,2.619,0,0,0,17.809,29.5m-.9-9.392a.913.913,0,0,1,.9-.891h8.6a.913.913,0,0,1,.9.891v6.787a.912.912,0,0,1-.9.891h-8.6a.912.912,0,0,1-.9-.891Z" transform="translate(-4.772 -5.503)" fill="#12263f"/>
          <path id="Trazado_880976" data-name="Trazado 880976" d="M41.89,17.5H37.521a.891.891,0,1,0,0,1.782H41.89a.913.913,0,0,0,.9-.891,1.023,1.023,0,0,0-.9-.891" transform="translate(-11.515 -5.503)" fill="#12263f"/>
          <path id="Trazado_880977" data-name="Trazado 880977" d="M41.89,21.3H37.521a.892.892,0,1,0,0,1.783H41.89a.913.913,0,0,0,.9-.892.96.96,0,0,0-.9-.891" transform="translate(-11.515 -6.698)" fill="#12263f"/>
          <path id="Trazado_880978" data-name="Trazado 880978" d="M41.89,25H37.521a.891.891,0,1,0,0,1.782H41.89a.913.913,0,0,0,.9-.891,1.023,1.023,0,0,0-.9-.891" transform="translate(-11.515 -7.862)" fill="#12263f"/>
          <path id="Trazado_880979" data-name="Trazado 880979" d="M41.89,28.8H37.521a.892.892,0,1,0,0,1.783H41.89a.913.913,0,0,0,.9-.892.96.96,0,0,0-.9-.891" transform="translate(-11.515 -9.057)" fill="#12263f"/>
          <path id="Trazado_880980" data-name="Trazado 880980" d="M41.89,32.5H37.521a.891.891,0,1,0,0,1.782H41.89a.913.913,0,0,0,.9-.891.964.964,0,0,0-.9-.891" transform="translate(-11.515 -10.22)" fill="#12263f"/>
          <path id="Trazado_880981" data-name="Trazado 880981" d="M35.147,36.3H16.076a.892.892,0,1,0,0,1.783H35.147a.913.913,0,0,0,.9-.892.964.964,0,0,0-.9-.891" transform="translate(-4.772 -11.415)" fill="#12263f"/>
          <path id="Trazado_880982" data-name="Trazado 880982" d="M35.147,40H16.076a.891.891,0,1,0,0,1.782H35.147a.913.913,0,0,0,.9-.891.964.964,0,0,0-.9-.891" transform="translate(-4.772 -12.578)" fill="#12263f"/>
          <path id="Trazado_880983" data-name="Trazado 880983" d="M35.147,43.8H16.076a.892.892,0,1,0,0,1.783H35.147a.913.913,0,0,0,.9-.892.96.96,0,0,0-.9-.891" transform="translate(-4.772 -13.773)" fill="#12263f"/>
          <path id="Trazado_880984" data-name="Trazado 880984" d="M35.147,47.5H16.076a.891.891,0,1,0,0,1.782H35.147a.913.913,0,0,0,.9-.891,1.023,1.023,0,0,0-.9-.891" transform="translate(-4.772 -14.937)" fill="#12263f"/>
          <path id="Trazado_880985" data-name="Trazado 880985" d="M35.147,51.3H16.076a.892.892,0,1,0,0,1.783H35.147a.913.913,0,0,0,.9-.892.96.96,0,0,0-.9-.891" transform="translate(-4.772 -16.132)" fill="#12263f"/>
        </g>
      </g>
    </g>
  </g>
</svg>
